<svg id="Layer_1" data-name="Layer 1" xmlns="http://www.w3.org/2000/svg" viewBox="0 0 154.745 145.414"><defs><style>.cls-1{fill:#944ee7;}.cls-2{opacity:0.51;}.cls-3{fill:#fff;}</style></defs><path class="cls-1" d="M190.365,328.694a15.694,15.694,0,0,1-4.608-.652,11.013,11.013,0,0,1-3.731-1.933,8.813,8.813,0,0,1-2.5-3.214,10.667,10.667,0,0,1-.9-4.541v-.988h8.227a6.4,6.4,0,0,0,.2,1.6,4.806,4.806,0,0,0,.607,1.416,3.09,3.09,0,0,0,1.056,1.012,3,3,0,0,0,1.551.382,3.146,3.146,0,0,0,2.248-.9,2.976,2.976,0,0,0,.944-2.248,2.812,2.812,0,0,0-.292-1.349,3.154,3.154,0,0,0-.787-.944,5.312,5.312,0,0,0-1.124-.7q-.63-.291-1.3-.562-.765-.358-1.484-.629t-1.438-.585a27.892,27.892,0,0,1-3.013-1.5,11.651,11.651,0,0,1-2.517-1.934,8.731,8.731,0,0,1-1.731-2.539,7.991,7.991,0,0,1-.652-3.327,8.225,8.225,0,0,1,.989-4.069,9.439,9.439,0,0,1,2.608-2.989,12.293,12.293,0,0,1,3.641-1.866,13.2,13.2,0,0,1,8.946.27,9.851,9.851,0,0,1,4,2.72,8.917,8.917,0,0,1,1.619,3.056,15.84,15.84,0,0,1,.494,3.417H193.2a4.729,4.729,0,0,0-.764-2.293,2.505,2.505,0,0,0-2.2-.9,3.224,3.224,0,0,0-2.023.7,2.24,2.24,0,0,0-.9,1.866,2.615,2.615,0,0,0,.36,1.394,3.509,3.509,0,0,0,1.169,1.011q.853.518,1.843,1.012t1.955.921q.968.427,1.461.652A28.468,28.468,0,0,1,197.108,311a11.023,11.023,0,0,1,2.406,1.911,8.161,8.161,0,0,1,1.6,2.5,8.768,8.768,0,0,1,.584,3.349,10.325,10.325,0,0,1-.876,4.428,8.783,8.783,0,0,1-2.383,3.1,9.752,9.752,0,0,1-3.574,1.821A16.519,16.519,0,0,1,190.365,328.694Z" transform="translate(-178.623 -183.286)"/><path class="cls-1" d="M220.44,328.694a17.384,17.384,0,0,1-12-4.743,16.631,16.631,0,0,1-3.709-5.26,15.7,15.7,0,0,1-1.371-6.541,18.581,18.581,0,0,1,1.3-6.923,13.03,13.03,0,0,1,2.113-3.6,16.289,16.289,0,0,1,6-4.99,17.683,17.683,0,0,1,7.71-1.663,17.4,17.4,0,0,1,6.676,1.282,17.03,17.03,0,0,1,5.462,3.551,16.733,16.733,0,0,1,3.687,5.35,17.208,17.208,0,0,1,0,13.352,16.729,16.729,0,0,1-3.687,5.349,16.98,16.98,0,0,1-5.484,3.552A17.582,17.582,0,0,1,220.44,328.694Zm.045-26.479a8.458,8.458,0,0,0-3.619.765,8.372,8.372,0,0,0-2.787,2.067,9.478,9.478,0,0,0-1.776,3.013,10.456,10.456,0,0,0-.629,3.64,10.931,10.931,0,0,0,.629,3.732,9.146,9.146,0,0,0,1.8,3.057,8.771,8.771,0,0,0,2.832,2.09,8.495,8.495,0,0,0,3.686.787,8.008,8.008,0,0,0,3.552-.787,8.531,8.531,0,0,0,2.764-2.112,9.668,9.668,0,0,0,1.776-3.057,10.374,10.374,0,0,0,.63-3.574,10.508,10.508,0,0,0-.63-3.619,9.74,9.74,0,0,0-1.8-3.08A8.578,8.578,0,0,0,224.1,303,8.268,8.268,0,0,0,220.485,302.215Z" transform="translate(-178.623 -183.286)"/><path class="cls-1" d="M239.636,294.977h8.587V321.1h10.025v7.6H239.636Z" transform="translate(-178.623 -183.286)"/><path class="cls-1" d="M277.219,328.694a17.384,17.384,0,0,1-12-4.743,16.628,16.628,0,0,1-3.708-5.26,15.679,15.679,0,0,1-1.372-6.541,18.558,18.558,0,0,1,1.305-6.923,12.988,12.988,0,0,1,2.112-3.6,16.315,16.315,0,0,1,6-4.99,17.669,17.669,0,0,1,7.71-1.663,17.391,17.391,0,0,1,6.675,1.282,17.045,17.045,0,0,1,5.463,3.551,16.73,16.73,0,0,1,3.686,5.35,17.191,17.191,0,0,1,0,13.352,16.726,16.726,0,0,1-3.686,5.349,16.984,16.984,0,0,1-5.485,3.552A17.6,17.6,0,0,1,277.219,328.694Zm.045-26.479a8.458,8.458,0,0,0-3.619.765,8.359,8.359,0,0,0-2.787,2.067,9.449,9.449,0,0,0-1.776,3.013,10.434,10.434,0,0,0-.63,3.64,10.956,10.956,0,0,0,.63,3.732,9.12,9.12,0,0,0,1.8,3.057,8.775,8.775,0,0,0,2.833,2.09,8.49,8.49,0,0,0,3.685.787,8.008,8.008,0,0,0,3.552-.787,8.545,8.545,0,0,0,2.765-2.112,9.717,9.717,0,0,0,1.776-3.057,10.373,10.373,0,0,0,.629-3.574,10.53,10.53,0,0,0-.629-3.619,9.74,9.74,0,0,0-1.8-3.08,8.609,8.609,0,0,0-2.81-2.135A8.287,8.287,0,0,0,277.264,302.215Z" transform="translate(-178.623 -183.286)"/><path class="cls-1" d="M333.368,328.694h-9.35l-1.844-2.248-4.765-5.889a9.128,9.128,0,0,0,2.945-2.5,9.559,9.559,0,0,0,1.685-3.484,9.947,9.947,0,0,0,.36-2.652,10.712,10.712,0,0,0-.629-3.642,9.432,9.432,0,0,0-1.8-3.079,9.022,9.022,0,0,0-2.809-2.136,8.067,8.067,0,0,0-3.619-.809,8.458,8.458,0,0,0-3.619.765,8.593,8.593,0,0,0-2.81,2.067,9.485,9.485,0,0,0-1.82,3.035,10.3,10.3,0,0,0-.652,3.664,10.464,10.464,0,0,0,.652,3.686,9.428,9.428,0,0,0,1.82,3.057,8.786,8.786,0,0,0,2.832,2.09,8.5,8.5,0,0,0,3.687.787,8.673,8.673,0,0,0,1.483-.134l4.9,6.2a17.05,17.05,0,0,1-6.518,1.214,17.5,17.5,0,0,1-12-4.72,16.742,16.742,0,0,1-3.732-5.215,15.336,15.336,0,0,1-1.393-6.519,18.581,18.581,0,0,1,1.3-6.923,12.164,12.164,0,0,1,.922-1.888,16.951,16.951,0,0,1,1.191-1.754,16.619,16.619,0,0,1,6.025-4.967,18.207,18.207,0,0,1,14.363-.4,17.216,17.216,0,0,1,5.462,3.528,16.97,16.97,0,0,1,4.226,17.241,16.7,16.7,0,0,1-2.248,4.473Z" transform="translate(-178.623 -183.286)"/><path class="cls-1" d="M291.2,257.991a50.009,50.009,0,0,0,4.194-9.568l.107-.347a49.28,49.28,0,0,0,1.878-8.852l.047-.388c.052-.491.1-.983.139-1.5.01-.122.02-.24.026-.34.037-.5.068-.99.084-1.449.008-.135.016-.273.02-.4.019-.5.03-.99.029-1.451v-.4c0-.5-.007-.986-.022-1.48l-.011-.367c-.019-.494-.045-.986-.079-1.5-.008-.126-.015-.249-.024-.33-.033-.5-.078-1-.128-1.464l-.166-1.746H212.5a35.325,35.325,0,0,1,2.089-6.887c.036-.093.074-.183.127-.3a35.889,35.889,0,0,1,66.03,0l.4.923h14.88l-.631-1.983a50.007,50.007,0,0,0-95.324.022l-.108.347a50.133,50.133,0,0,0-1.927,9.262l-.034.337c-.052.5-.1.99-.127,1.453-.012.134-.021.269-.028.393-.033.492-.059.983-.078,1.487l-.01.359c-.015.492-.023.983-.023,1.479v.358c0,.5.011,1,.029,1.475,0,.13.011.264.018.371.019.5.049.994.084,1.466.008.123.019.245.03.38.037.5.085.988.14,1.5l.207,1.695H282.89a35.44,35.44,0,0,1-2.015,6.525c-.036.094-.075.185-.13.308-.313.735-.62,1.4-.958,2.056-.027.056-.054.114-.1.207-.232.454-.474.9-.742,1.368l-.112.2c-.253.439-.515.868-.8,1.311-.032.051-.063.1-.129.2-.269.419-.546.829-.841,1.244-.032.046-.064.093-.1.137l-.052.069c-.282.4-.576.794-.872,1.174l-.161.2c-.3.383-.615.763-.954,1.153l-.155.177c-.315.366-.64.721-1.018,1.117-.028.031-.06.064-.092.1l-1.126,1.073,23.8,23.805h19.861Z" transform="translate(-178.623 -183.286)"/><path class="cls-1" d="M277.813,266.079l-3.574-3.572-.246-.251-1.277-1.272-1.1-1.008L270.54,261l-.066.052c-.38.314-.766.619-1.187.937l-.166.125c-.4.3-.806.586-1.235.879l-.2.133c-.417.281-.841.55-1.271.817-.059.037-.122.073-.216.128-.431.263-.868.512-1.312.755l-.227.124c-.447.241-.9.471-1.3.667h-.008l-.312.149c-.465.223-.933.431-1.4.628l-.278.115a35.886,35.886,0,0,1-46.647-19.125l-.4-.923H199.442l.63,1.983a50.043,50.043,0,0,0,53.5,34.521,49.407,49.407,0,0,0,16.393-4.882l4.892,4.892H294.71l-16.69-16.692Z" transform="translate(-178.623 -183.286)"/><g class="cls-2"><path class="cls-3" d="M297.4,281.455h-.365L282.6,267.021l-.211-.208-1.053-1.056-1.263-1.263-.219-.219-1.045-1.045-.222-.222-1.038-1.038-.233-.229-1.031-1.031-.233-.237-1.027-1.027-.247-.247c.064-.061.125-.125.179-.186.358-.372.7-.748,1.035-1.135.057-.064.114-.129.168-.193.336-.387.662-.784.981-1.185l.161-.2c.318-.408.626-.82.923-1.243.054-.068.1-.139.154-.211q.45-.633.874-1.292c.05-.072.1-.147.143-.222.283-.444.555-.891.82-1.35.043-.075.086-.15.129-.229q.4-.693.762-1.407c.043-.078.083-.161.122-.243.354-.691.68-1.4.984-2.116.054-.118.1-.236.151-.358a36.7,36.7,0,0,0,2.413-8.591H199.665c-.014-.119-.029-.24-.043-.358-.05-.477-.1-.953-.133-1.432-.01-.122-.021-.24-.028-.358-.036-.477-.065-.953-.083-1.432-.007-.118-.014-.24-.017-.358-.018-.476-.029-.953-.029-1.432v-.358c0-.48.008-.956.022-1.432l.011-.358c.017-.48.043-.956.075-1.432.007-.122.014-.24.025-.358.032-.48.075-.956.125-1.432.011-.118.025-.24.036-.358a48.459,48.459,0,0,1,1.865-8.95c.036-.118.075-.24.111-.358a48.486,48.486,0,0,1,92.418,0h-.32a48.182,48.182,0,0,0-91.781,0c-.04.118-.079.236-.115.358a47.785,47.785,0,0,0-1.876,8.95c-.014.118-.025.24-.036.358-.053.476-.093.952-.128,1.432-.011.118-.018.24-.026.358-.032.476-.057.952-.075,1.432l-.01.358c-.015.476-.022.952-.022,1.432v.358q0,.718.028,1.432c0,.121.011.24.018.358.018.479.047.955.083,1.432.007.118.017.239.025.358.039.479.085.955.139,1.432h85.259c-.015.121-.033.239-.051.358a37.4,37.4,0,0,1-2.387,8.591c-.05.118-.1.24-.147.358-.344.806-.709,1.593-1.106,2.37h0c-.04.082-.083.157-.126.24-.243.472-.5.941-.766,1.4a2.579,2.579,0,0,1-.129.229c-.264.458-.54.906-.819,1.35-.05.075-.1.146-.147.218-.279.437-.573.87-.874,1.292-.05.072-.1.143-.154.212-.3.418-.608.834-.927,1.238l-.161.2c-.318.405-.644.8-.981,1.189-.057.064-.111.129-.168.189q-.5.58-1.035,1.139l1.031,1.027.233.237,1.035,1.031.229.229,1.038,1.041.222.219,1.045,1.045.219.218,1.049,1.049.214.219,1.053,1.052.211.208Z" transform="translate(-178.623 -183.286)"/><path class="cls-3" d="M302.468,281.455H302.1l-17.1-17.1-.212-.212-1.059-1.059-.215-.215-2.545-2.545-1.046-1.046-.229-.229c.057-.068.111-.136.161-.2.326-.4.638-.809.942-1.224.053-.072.107-.14.154-.211.308-.419.6-.842.895-1.271.05-.072.1-.147.143-.222.293-.433.573-.877.845-1.325.046-.071.093-.147.136-.222.272-.454.537-.913.791-1.378.046-.079.089-.157.129-.236a39.732,39.732,0,0,0,2.2-4.776c.05-.118.093-.24.136-.358a40.229,40.229,0,0,0,2.18-8.591c.018-.119.036-.237.05-.358.065-.477.118-.953.161-1.432.015-.119.025-.24.032-.358.043-.477.079-.953.1-1.432h-85.8c0-.118-.011-.237-.015-.358-.017-.476-.032-.953-.032-1.432v-.358c0-.48.007-.956.021-1.432,0-.122.011-.24.014-.358.018-.48.043-.956.083-1.432,0-.118.014-.24.025-.358.036-.48.082-.956.136-1.432.011-.122.025-.24.043-.358a44.484,44.484,0,0,1,2.019-8.95c.039-.118.082-.236.122-.358a44.908,44.908,0,0,1,84.879,0h-.33a44.6,44.6,0,0,0-84.22,0c-.043.118-.086.24-.125.358a44.138,44.138,0,0,0-2.037,8.95c-.015.118-.029.236-.043.358-.054.476-.1.952-.136,1.432-.011.118-.018.24-.029.358-.032.476-.061.952-.079,1.432,0,.118-.01.24-.014.358-.014.476-.021.952-.021,1.432v.358c0,.479.014.956.032,1.432H289.1c0,.121-.007.24-.01.358-.025.479-.058.955-.1,1.432-.007.118-.018.239-.032.358-.043.479-.1.959-.158,1.432-.014.121-.032.239-.05.358a40.715,40.715,0,0,1-2.162,8.591c-.043.122-.086.24-.136.358A40.206,40.206,0,0,1,284.139,253c-.043.078-.086.157-.132.236q-.381.7-.8,1.375c-.043.075-.086.146-.136.222-.268.447-.551.887-.845,1.324-.046.072-.093.147-.147.218-.286.43-.587.856-.895,1.271-.048.073-.1.144-.154.212-.3.415-.619.823-.941,1.224l2.32,2.32.218.218,1.056,1.056.215.215,1.056,1.056.215.215Z" transform="translate(-178.623 -183.286)"/><path class="cls-3" d="M288.578,281.455h-.358l-16.6-16.6c-.412.311-.834.616-1.26.909-.072.054-.143.1-.215.15-.429.3-.863.584-1.307.86a2.493,2.493,0,0,1-.225.139c-.444.283-.9.552-1.357.809-.079.047-.154.09-.233.133q-.7.391-1.414.751h0c-.079.043-.154.083-.236.122q-.726.366-1.472.7h0c-.083.036-.165.075-.251.111h0a39.54,39.54,0,0,1-52.069-20.387q-.255-.582-.49-1.171h.365a39.2,39.2,0,0,0,51.02,21.685q.462-.187.92-.385c.086-.033.169-.072.254-.111.5-.219.992-.448,1.479-.691.082-.04.157-.079.236-.122h0c.479-.236.952-.487,1.417-.748.079-.04.158-.086.233-.133q.693-.381,1.364-.8c.075-.046.147-.089.222-.143q.666-.408,1.31-.855c.072-.047.143-.1.215-.151.426-.293.845-.594,1.26-.909.068-.05.136-.1.2-.154l.236.236,1.042,1.038.233.233,1.045,1.049,1.278,1.278.219.215,1.056,1.059.218.215,1.056,1.056.211.215Z" transform="translate(-178.623 -183.286)"/><path class="cls-3" d="M305,281.455h-.365l-18.5-18.5-.215-.215-1.063-1.063-.215-.215-1.278-1.278-1.056-1.056-.226-.226a2.277,2.277,0,0,0,.154-.211c.312-.415.612-.834.9-1.263l.151-.215c.293-.433.576-.874.852-1.318.046-.071.093-.143.139-.218q.414-.677.806-1.368c.043-.078.089-.153.129-.232a42.44,42.44,0,0,0,2.8-6.1c.046-.118.089-.236.129-.358a42.166,42.166,0,0,0,2.083-8.591c.018-.119.032-.24.047-.358.06-.477.114-.953.154-1.432.014-.119.025-.237.032-.358.043-.473.071-.953.1-1.432.008-.118.011-.237.011-.358.025-.473.036-.953.039-1.432H204.7V233.3c0-.48.007-.956.025-1.432,0-.122.007-.24.014-.358.018-.48.043-.956.079-1.432.011-.122.018-.24.032-.358.036-.48.083-.956.144-1.432.01-.118.025-.24.039-.358a42.531,42.531,0,0,1,2.116-8.95c.039-.118.082-.24.125-.358a43.118,43.118,0,0,1,81.084,0h-.336a42.8,42.8,0,0,0-80.412,0c-.046.118-.089.236-.128.358a42.028,42.028,0,0,0-2.13,8.95c-.018.122-.033.24-.043.358-.058.476-.1.952-.144,1.432-.01.118-.021.236-.028.358-.036.476-.065.952-.079,1.432-.011.118-.014.236-.014.358-.022.476-.029.952-.029,1.432h85.917v.358c0,.479-.015.956-.036,1.432,0,.118-.007.24-.015.358-.021.479-.053.955-.1,1.432-.007.121-.018.239-.029.358-.043.479-.093.955-.154,1.432-.014.118-.028.239-.05.358a42.144,42.144,0,0,1-2.066,8.591c-.039.118-.082.24-.125.358a42.715,42.715,0,0,1-2.9,6.326c-.042.079-.085.157-.132.236-.258.458-.526.913-.809,1.361-.043.075-.086.146-.136.221q-.414.666-.856,1.314c-.046.072-.1.143-.15.215-.29.426-.591.849-.9,1.264l1.281,1.281,1.057,1.056.214.215Z" transform="translate(-178.623 -183.286)"/><path class="cls-3" d="M299.937,281.455h-.365l-15.741-15.744-.211-.211-1.056-1.053-.215-.215L281.3,263.18l-.218-.219-1.271-1.27-1.038-1.039-1.264-1.263-.24-.237c.061-.064.119-.128.172-.193.337-.39.666-.784.981-1.185.061-.068.115-.132.165-.2.322-.405.63-.816.934-1.232.05-.071.1-.139.154-.211.3-.422.6-.848.881-1.285a2.151,2.151,0,0,0,.143-.222q.435-.66.834-1.335c.047-.076.09-.151.133-.226.272-.458.529-.92.776-1.392a2.106,2.106,0,0,0,.126-.24,36.4,36.4,0,0,0,1.6-3.448c.05-.118.1-.236.147-.358a38.754,38.754,0,0,0,2.288-8.591c.018-.119.035-.237.05-.358.068-.473.125-.953.172-1.432H201.283c-.011-.119-.022-.24-.029-.358-.035-.477-.064-.953-.086-1.432-.007-.118-.01-.237-.014-.358-.021-.473-.032-.953-.032-1.432v-.358c0-.48.007-.956.022-1.432,0-.122.007-.24.014-.358.018-.48.043-.96.075-1.432.007-.122.015-.24.025-.358.036-.48.079-.956.129-1.432.015-.118.029-.236.04-.358a46.735,46.735,0,0,1,1.94-8.95l.118-.358a46.695,46.695,0,0,1,88.652,0h-.319a46.391,46.391,0,0,0-88.014,0c-.04.118-.079.236-.119.358a45.892,45.892,0,0,0-1.951,8.95c-.017.122-.028.24-.039.358-.054.476-.1.952-.136,1.432-.007.118-.018.236-.025.358-.032.476-.057.952-.075,1.432-.007.118-.011.24-.015.358-.014.476-.021.952-.021,1.432v.358q0,.719.032,1.432c0,.118.007.24.014.358.022.479.05.955.086,1.432h85.634c-.007.118-.018.239-.028.358-.05.479-.1.959-.172,1.432-.015.121-.032.239-.054.358a38.959,38.959,0,0,1-2.262,8.591c-.047.118-.093.24-.144.358a38.12,38.12,0,0,1-1.711,3.7c-.039.079-.082.158-.125.237h0c-.251.469-.508.927-.784,1.386-.039.075-.086.15-.132.225-.269.451-.545.9-.835,1.335-.046.076-.093.151-.143.222-.286.433-.58.859-.888,1.278a2.434,2.434,0,0,1-.154.212c-.3.418-.612.826-.934,1.231a1.986,1.986,0,0,1-.161.2q-.478.6-.984,1.185l1.031,1.031.232.233,2.309,2.309.219.218,1.052,1.049.215.218,1.052,1.053.215.211Z" transform="translate(-178.623 -183.286)"/><path class="cls-3" d="M307.53,281.455h-.365l-19.947-19.947-.215-.215-1.067-1.067-.218-.218-1.067-1.067-.218-.218c.046-.072.1-.143.15-.215.294-.43.58-.866.863-1.307.043-.071.093-.146.136-.222.283-.443.555-.894.82-1.349.046-.079.089-.158.132-.233a44.031,44.031,0,0,0,3.383-7.414c.043-.118.086-.24.125-.358a44.114,44.114,0,0,0,1.994-8.591c.015-.119.029-.237.043-.358.058-.477.108-.953.151-1.432.011-.122.021-.24.028-.358.04-.477.068-.953.093-1.432,0-.118.011-.24.015-.358.018-.476.032-.953.032-1.432v-.358c0-.48-.008-.956-.022-1.432H206.5a2.858,2.858,0,0,1,.015-.358c.014-.48.043-.956.082-1.432.007-.118.018-.24.032-.358.036-.48.086-.96.147-1.432.014-.122.029-.24.043-.358a41.06,41.06,0,0,1,2.212-8.95c.043-.122.086-.24.136-.358a41.331,41.331,0,0,1,77.276,0h-.351a41,41,0,0,0-76.574,0c-.05.118-.093.24-.136.358a40.6,40.6,0,0,0-2.23,8.95c-.018.118-.032.24-.047.358-.057.476-.107.952-.146,1.432-.015.118-.022.24-.033.358-.035.476-.064.952-.082,1.432h85.828c0,.118.01.236.014.358.014.476.021.952.021,1.432v.358c0,.479-.014.956-.032,1.432,0,.121-.011.24-.015.358-.025.479-.053.955-.093,1.432-.007.118-.018.239-.028.358-.043.479-.09.959-.151,1.432-.01.121-.025.239-.043.358a44.253,44.253,0,0,1-1.976,8.591c-.039.118-.082.237-.121.358a44.77,44.77,0,0,1-3.487,7.64c-.043.078-.09.154-.133.229-.265.458-.54.909-.82,1.353-.046.072-.093.147-.139.218-.279.441-.569.874-.866,1.3Z" transform="translate(-178.623 -183.286)"/><path class="cls-3" d="M310.061,281.455H309.7L286.742,258.5l.143-.218c.283-.44.558-.888.827-1.339.043-.075.089-.154.136-.229a46.223,46.223,0,0,0,3.966-8.728c.04-.118.079-.236.119-.358a46.015,46.015,0,0,0,1.911-8.591c.015-.119.029-.24.04-.358.057-.477.1-.953.146-1.432.011-.119.018-.237.029-.358.036-.477.065-.953.086-1.432.007-.118.011-.24.014-.358q.033-.714.033-1.432v-.358c0-.48-.007-.956-.021-1.432,0-.118-.008-.24-.015-.358-.018-.48-.043-.956-.075-1.432H208.393c.007-.118.018-.24.032-.358.039-.48.089-.96.15-1.432.018-.122.032-.24.05-.358a39.147,39.147,0,0,1,2.316-8.95c.047-.118.094-.24.144-.358a39.547,39.547,0,0,1,73.444,0h-.365a39.206,39.206,0,0,0-72.714,0c-.05.118-.1.236-.147.358a38.733,38.733,0,0,0-2.338,8.95c-.018.118-.035.236-.05.358-.061.472-.114.952-.154,1.432h85.6c.011.118.018.236.025.358.032.472.057.952.075,1.432.007.118.011.236.014.358.015.476.022.952.022,1.432v.358c0,.479-.01.959-.032,1.432,0,.121-.007.24-.014.358-.022.479-.05.955-.086,1.432-.007.118-.018.239-.029.358-.039.479-.086.955-.139,1.432-.015.118-.029.236-.047.358a46.171,46.171,0,0,1-1.894,8.591l-.118.358a46.43,46.43,0,0,1-4.063,8.946c-.047.076-.093.154-.136.229-.272.452-.548.9-.834,1.339l1.292,1.293Z" transform="translate(-178.623 -183.286)"/><path class="cls-3" d="M312.6,281.455h-.365l-22.994-22.993-.222-.219c.047-.075.093-.15.14-.229a47.72,47.72,0,0,0,4.543-10.031c.039-.118.078-.236.114-.358a47.652,47.652,0,0,0,1.833-8.591c.014-.119.029-.24.043-.358.054-.477.1-.953.14-1.432.007-.119.017-.24.025-.358.035-.477.064-.953.082-1.432.007-.118.014-.237.018-.358q.027-.714.028-1.432v-.358c0-.48-.007-.956-.021-1.432l-.011-.358c-.018-.48-.043-.956-.075-1.432-.007-.118-.015-.24-.025-.358-.036-.48-.076-.956-.129-1.432H210.379c.015-.118.033-.24.051-.358a37.288,37.288,0,0,1,2.437-8.95c.051-.118.1-.24.147-.358a37.763,37.763,0,0,1,69.586,0h-.38a37.41,37.41,0,0,0-68.826,0c-.054.118-.1.236-.151.358a36.639,36.639,0,0,0-2.466,8.95h85.215c.011.118.025.24.036.358.05.476.093.952.125,1.432.011.118.018.236.025.358.033.476.058.952.076,1.432l.01.358c.015.476.022.952.022,1.432v.358c0,.479-.011.956-.028,1.432,0,.118-.011.24-.018.358-.018.479-.047.955-.083,1.432-.007.118-.018.236-.028.358-.036.479-.083.955-.133,1.432-.014.118-.028.239-.043.358a47.731,47.731,0,0,1-1.822,8.591c-.036.118-.075.24-.111.358a48.449,48.449,0,0,1-4.643,10.253Z" transform="translate(-178.623 -183.286)"/><path class="cls-3" d="M283.52,281.455h-.365l-9.372-9.372-.215-.215-1.3-1.3L271.2,269.5q-.66.431-1.335.831c-.075.047-.154.093-.229.136-.455.272-.917.53-1.386.784-.078.043-.157.086-.236.122-.472.257-.952.5-1.435.734-.083.043-.165.082-.247.118a43.1,43.1,0,0,1-57.45-20.366q-.9-1.9-1.622-3.881h.336a42.783,42.783,0,0,0,54.852,25.535q1.858-.678,3.648-1.525c.083-.035.165-.075.247-.114.484-.233.967-.476,1.439-.734.079-.036.158-.079.237-.122.469-.25.934-.512,1.389-.78.078-.047.154-.09.229-.136.451-.269.9-.544,1.335-.831.075-.046.15-.093.222-.143l.226.226Z" transform="translate(-178.623 -183.286)"/><path class="cls-3" d="M280.989,281.455h-.365l-7.081-7.081-2.6-2.6c-.451.272-.909.541-1.371.8l-.233.129c-.469.257-.941.508-1.421.748-.083.039-.161.082-.244.122a44.9,44.9,0,0,1-62.307-25.586h.329a44.581,44.581,0,0,0,61.746,25.356c.082-.039.164-.078.243-.121.48-.24.956-.487,1.425-.745.079-.039.154-.082.233-.129.461-.254.923-.519,1.374-.794.079-.043.154-.09.229-.136l.222.221,1.081,1.082.222.222,1.078,1.077Z" transform="translate(-178.623 -183.286)"/><path class="cls-3" d="M278.454,281.455H278.1l-6.132-6.132-.218-.215-1.092-1.092c-.466.261-.934.516-1.411.759-.078.043-.157.086-.239.125a46.684,46.684,0,0,1-65.523-26.917h.319a46.375,46.375,0,0,0,64.982,26.692c.078-.04.161-.083.239-.126.477-.243.946-.5,1.411-.758.079-.043.154-.086.229-.129l1.314,1.314.218.218Z" transform="translate(-178.623 -183.286)"/><path class="cls-3" d="M275.923,281.455h-.361l-5.23-5.23A48.454,48.454,0,0,1,201.6,247.983h.319a48.272,48.272,0,0,0,44.265,33.472c.54.018,1.081.029,1.625.029.566,0,1.128-.011,1.69-.029A47.855,47.855,0,0,0,270.11,276c.078-.039.157-.082.236-.125Z" transform="translate(-178.623 -183.286)"/><path class="cls-3" d="M286.051,281.455h-.365l-10.629-10.629-1.063-1.063-.222-.222-1.06-1.059-1.281-1.282q-.639.45-1.293.874c-.075.046-.15.1-.225.139-.444.287-.892.559-1.346.82-.075.05-.154.093-.229.136-.462.265-.928.523-1.4.766-.079.043-.158.086-.236.125-.48.251-.967.487-1.457.713-.083.043-.161.082-.247.118h0a41.318,41.318,0,0,1-54.766-20.376q-.571-1.248-1.059-2.532h.351A41,41,0,0,0,262.481,271.6q1.152-.441,2.274-.951c.082-.036.164-.075.247-.115h0c.494-.225.978-.465,1.457-.712.079-.039.158-.079.237-.122.472-.243.941-.5,1.4-.766.079-.043.157-.086.233-.132.454-.265.9-.537,1.346-.82.075-.043.15-.09.225-.14q.656-.418,1.3-.87c.072-.046.143-.1.215-.15Z" transform="translate(-178.623 -183.286)"/><path class="cls-3" d="M291.113,281.455h-.365l-11.592-11.592L278.1,268.8l-.215-.211-1.052-1.056-.219-.215-1.052-1.053-.222-.222L274.3,265l-.229-.233-1.038-1.035-1.267-1.267q-.6.494-1.214.956c-.064.054-.132.1-.2.157q-.624.462-1.268.9c-.071.051-.143.1-.218.147-.433.294-.87.577-1.317.849-.076.05-.151.093-.226.139-.451.276-.909.537-1.371.8l-.236.129c-.473.254-.953.5-1.436.734-.082.043-.157.082-.24.118h0q-.736.354-1.49.677h0c-.086.035-.168.071-.254.107h0a37.764,37.764,0,0,1-49.27-20.2h.38a37.4,37.4,0,0,0,48.625,19.933h0c.089-.032.172-.072.258-.107.5-.212,1-.434,1.5-.67h0c.083-.039.162-.079.244-.114.483-.237.963-.48,1.435-.734l.237-.129c.465-.254.923-.516,1.374-.791.076-.043.154-.09.23-.136.443-.276.884-.555,1.317-.849.071-.046.147-.1.218-.147q.645-.44,1.268-.9c.071-.053.139-.1.2-.154q.617-.467,1.213-.959a2.111,2.111,0,0,0,.2-.165l.247.247,1.03,1.029.236.24,1.035,1.034.233.229,1.038,1.042.225.222,1.049,1.052.219.215,1.052,1.056.215.212,1.056,1.056.211.214Z" transform="translate(-178.623 -183.286)"/></g></svg>