<?xml version="1.0" encoding="utf-8"?>
<!-- Generator: Adobe Illustrator 25.0.1, SVG Export Plug-In . SVG Version: 6.00 Build 0)  -->
<svg version="1.1" id="Layer_1" xmlns="http://www.w3.org/2000/svg" xmlns:xlink="http://www.w3.org/1999/xlink" x="0px" y="0px"
	 viewBox="0 0 373.9 219.9" style="enable-background:new 0 0 373.9 219.9;" xml:space="preserve">
<style type="text/css">
	.st0{fill:#DCB065;}
	.st1{fill:url(#SVGID_1_);}
	.st2{fill:url(#SVGID_2_);}
	.st3{fill:#09463F;}
</style>
<path class="st0" d="M239,117.7c-18.4,18.4-85.6,18.4-103.9,0c-18.4-18.4-18.4-85.6,0-103.9c18.4-18.4,85.6-18.4,103.9,0
	S257.3,99.3,239,117.7"/>
<linearGradient id="SVGID_1_" gradientUnits="userSpaceOnUse" x1="159.217" y1="149.2" x2="234.403" y2="149.2" gradientTransform="matrix(1 0 0 -1 -9.82 215.19)">
	<stop  offset="0" style="stop-color:#09463F"/>
	<stop  offset="1" style="stop-color:#0B2B28"/>
</linearGradient>
<path class="st1" d="M213.2,30.6l-0.1-0.2c-0.1-0.1-0.1-0.1-0.2-0.2l-0.2-0.1l-0.3-0.1l-0.2-0.1c-0.2,0-0.3-0.1-0.5-0.1h-49.3
	c-0.2,0-0.3,0-0.5,0.1h-0.1c-0.1,0-0.2,0.1-0.3,0.1l-0.1,0.1c-0.1,0.1-0.2,0.1-0.3,0.2l-0.1,0.1c0,0-0.1,0.1-0.1,0.2l-11,15.6
	c-0.4,0.7-0.4,1.5,0,2.2l35.6,52.7c0.4,0.5,1,0.8,1.6,0.8c0.6,0,1.2-0.3,1.6-0.8l10.8-16l24.9-36.7c0.4-0.7,0.4-1.5,0-2.2
	L213.2,30.6C213.2,30.7,213.2,30.6,213.2,30.6z M208,33.8l-10.2,15.1l-10.2-15.1H208z M182.8,33.8l12.6,18.6L187,64.8l-21-31
	L182.8,33.8z M187,96.6l-33.3-49.1l8.6-12.2l0.7,1l32.5,47.9L187,96.6z M197.8,80.7l-8.4-12.5l2.8-4l19.6-28.9l8.6,12.2L197.8,80.7z
	"/>
<linearGradient id="SVGID_2_" gradientUnits="userSpaceOnUse" x1="147" y1="144.68" x2="246.66" y2="144.68" gradientTransform="matrix(1 0 0 -1 -9.82 215.19)">
	<stop  offset="0" style="stop-color:#09463F"/>
	<stop  offset="1" style="stop-color:#0B2B28"/>
</linearGradient>
<path class="st2" d="M217.7,20.2h-61.4l-19.1,27.1l49.8,73.5l49.8-73.5l0,0L217.7,20.2z M187,113.9l-17.2-25.4l-27.9-41.2l16.4-23.3
	h57.4l16.4,23.3L187,113.9z"/>
<g>
	<g>
		<path class="st3" d="M12.4,157.1c-2.2,0-4,0.7-5.5,1.9c-1.7,1.5-2.5,3.5-2.6,6c0,1.9,0.5,3.6,1.5,4.9H5.2c-1,0-1.8,0.4-2.5,1.1
			c-0.7,0.8-1.1,1.6-1.1,2.7v12.7h2.1l2.2-1.7v-10.4c0-0.6,0.3-0.9,0.9-0.9h8.9c0.9,0,1.7-0.3,2.4-0.9c0.9-0.7,1.3-1.7,1.3-2.9v-6.1
			c0-1.7-0.5-3.1-1.5-4.2C16.6,157.8,14.8,157.1,12.4,157.1z M15.2,169.1c0,0.6-0.3,0.9-0.9,0.9h-1.7c-1.3,0-2.3-0.4-3-1.3
			c-0.7-0.8-1.1-2-1.1-3.4c0-1.4,0.3-2.5,1-3.4c0.7-0.8,1.6-1.3,2.8-1.3c0.7,0,1.4,0.2,1.9,0.7c0.6,0.5,0.9,1.2,0.9,2.2V169.1z"/>
		<polygon class="st3" points="23.7,174.4 25.8,174.4 27.9,172.6 27.9,148.6 23.7,148.6 		"/>
		<path class="st3" d="M57.7,154.3c0.6,0,1.2-0.2,1.6-0.7c0.4-0.4,0.7-1,0.7-1.6c0-0.6-0.2-1.2-0.7-1.6c-0.4-0.4-1-0.7-1.6-0.7
			c-0.6,0-1.1,0.2-1.6,0.7c-0.4,0.4-0.7,1-0.7,1.6c0,0.6,0.2,1.1,0.7,1.6C56.6,154.1,57.1,154.3,57.7,154.3z"/>
		<path class="st3" d="M63,154.3c0.6,0,1.2-0.2,1.6-0.7c0.4-0.4,0.7-1,0.7-1.6c0-0.6-0.2-1.2-0.7-1.6c-0.4-0.4-1-0.7-1.6-0.7
			s-1.2,0.2-1.6,0.7c-0.4,0.4-0.6,1-0.6,1.6s0.2,1.2,0.6,1.6C61.8,154.1,62.4,154.3,63,154.3z"/>
		<path class="st3" d="M71.9,154.3c0.6,0,1.2-0.2,1.6-0.7c0.4-0.4,0.7-1,0.7-1.6c0-0.6-0.2-1.2-0.7-1.6c-0.4-0.4-1-0.7-1.6-0.7
			c-0.6,0-1.2,0.2-1.6,0.7c-0.4,0.4-0.7,1-0.7,1.6c0,0.6,0.2,1.1,0.7,1.6C70.8,154.1,71.3,154.3,71.9,154.3z"/>
		<path class="st3" d="M77.2,154.3c0.6,0,1.2-0.2,1.6-0.7c0.4-0.4,0.7-1,0.7-1.6c0-0.6-0.2-1.2-0.7-1.6c-0.4-0.4-1-0.7-1.6-0.7
			c-0.6,0-1.1,0.2-1.6,0.7c-0.4,0.4-0.7,1-0.7,1.6c0,0.6,0.2,1.1,0.7,1.6C76.1,154.1,76.6,154.3,77.2,154.3z"/>
		<path class="st3" d="M113.2,169.1c0,0.6-0.3,0.9-0.9,0.9h-6.5c0-0.1,0-0.3,0-0.6c0-0.3,0-0.5,0-0.6v-9.3h-4.2v9.6
			c0,0.6-0.3,0.9-0.9,0.9h-6.6c0-0.3,0-0.8,0-1.5v-6.9h-4.2v7.6c0,0.6-0.3,0.9-0.9,0.9h-8.3h-0.2H79v-0.5v-11.9h-4.2V169
			c0,0.3-0.1,0.5-0.3,0.7c-0.1,0.2-0.4,0.3-0.7,0.3h-5h-0.2h-2.2c1-1.5,1.6-3.1,1.6-5c0-2.4-0.8-4.4-2.5-5.9
			c-1.4-1.3-3.2-1.9-5.2-1.9c-2.8,0-4.9,1.1-6.3,3.2c-0.9,1.3-1.4,2.8-1.4,4.6c0,2,0.5,3.6,1.6,5h-6.7h-0.2h-0.7c0-0.3,0-0.6,0-1.2
			v-3.3c0-2.3-0.7-4.2-2.2-5.8c-1.6-1.7-3.8-2.6-6.5-2.6c-1,0-2,0.1-2.7,0.2v3.4c0.4-0.1,1-0.1,1.8-0.1c1.7,0.1,3,0.6,3.9,1.5
			c1,1,1.5,2.3,1.5,3.9v3.2c0,0.6-0.3,0.9-0.9,0.9h-9.8v3.5h11.1c0.9,0,1.6-0.3,2.3-0.8c0.2-0.2,0.4-0.4,0.6-0.6h0.1l1.1,1.4h0.2
			h0.2h9.4c1.5,0,2.6-0.2,3.3-0.5h0.2c0.7,0.3,1.8,0.5,3.3,0.5h5h0.2h6.5c1.2,0,2.2-0.5,3-1.4h0.1l1.3,1.4h1h0.2h9.6
			c1.2,0,2.2-0.5,2.9-1.4h0.1l1.3,1.4h7.3c1.2,0,2.2-0.5,2.9-1.4h0.1l1.3,1.4h7.3c1,0,1.9-0.4,2.7-1.1c0.7-0.8,1.1-1.6,1.1-2.7
			v-12.2h-4.2V169.1z M62.8,168.5c-0.6,0.8-1.5,1.3-2.5,1.4c-1-0.1-1.9-0.6-2.5-1.4c-0.6-0.8-1-1.9-1-3.2c0-1.4,0.3-2.5,1-3.3
			c0.6-0.8,1.5-1.3,2.5-1.3c1.1,0,1.9,0.4,2.5,1.3c0.6,0.8,0.9,1.9,0.9,3.3C63.8,166.5,63.4,167.6,62.8,168.5z"/>
		<path class="st3" d="M133.1,181.5c-0.2-0.3-0.3-0.7-0.3-1.1c0-1.1,0.5-1.7,1.5-1.7c0.4,0,0.8,0.1,1.3,0.2v-1.8
			c-0.6-0.2-1.2-0.3-1.8-0.3c-1,0-1.8,0.3-2.4,0.9c-0.6,0.6-0.9,1.4-0.9,2.4c0,0.7,0.2,1.4,0.6,2h-1.4v1.9h6.1l0.8-1v-0.9h-2.4
			C133.8,182.1,133.4,181.9,133.1,181.5z"/>
		<path class="st3" d="M148.2,169.1c0,0.2-0.1,0.4-0.2,0.6c-0.2,0.2-0.4,0.3-0.7,0.3h-5.1H142h-1.6c0-0.2,0-0.5,0-0.9v-20.4h-4.2
			v20.5c0,0.2-0.1,0.4-0.2,0.6c-0.2,0.2-0.4,0.3-0.7,0.3h-1.9l-5.8-17.1h-4l5.7,17.1H121v1.4l1.7,2.2h14c0.5,0,1-0.1,1.5-0.3
			c0.5-0.2,1-0.6,1.4-1.1h0.1l1.1,1.4h1.1h0.2h6.5c1.2,0,2.1-0.4,2.8-1.3c0.6-0.7,0.9-1.5,0.9-2.5v-21h-4.2V169.1z"/>
		<path class="st3" d="M191.3,169.1c0,0.2-0.1,0.4-0.2,0.6c-0.2,0.2-0.4,0.3-0.7,0.3H188h-3h-6.6v1.3l1.8,2.2h2.2
			c-0.2,1.9-0.9,3.1-2.2,3.9c-1,0.6-2.7,0.9-5.1,0.9c-2.7,0-4.6-0.4-5.7-1.3c-1.1-0.9-1.6-2.4-1.6-4.6v-4.8h-2.1l-2.2,1.7v3.5
			c0,3,1,5.3,2.9,6.9c1.7,1.5,4.1,2.3,7,2.3h3.4c2.6,0,4.7-0.6,6.4-1.8c2.1-1.5,3.3-3.6,3.5-6.5h1.3h3.7c1.2,0,2.1-0.4,2.8-1.3
			c0.6-0.7,0.9-1.5,0.9-2.5v-21h-4.2V169.1z"/>
		<path class="st3" d="M212.5,158.5c-1.3-0.9-2.8-1.4-4.7-1.4c-2.5,0-4.5,0.8-5.9,2.4c-1.4,1.5-2.1,3.4-2.1,5.8
			c0,2.2,0.6,4.1,1.9,5.7c1.5,1.9,3.5,2.8,6,2.8c0.9,0,1.9-0.1,2.9-0.4c-0.3,3.3-2.3,4.9-6,4.9c-0.7,0-1.4-0.1-2.2-0.2v1.5l1.7,2.1
			c0.6,0,1,0.1,1.2,0.1c1,0,1.9-0.1,2.7-0.3c1.6-0.4,3-1,4.1-1.9c1.9-1.6,2.8-3.9,2.8-6.9v-9.1C214.9,161.3,214.1,159.7,212.5,158.5
			z M210.7,169.8c-0.8,0.3-1.6,0.4-2.3,0.4c-1.3,0-2.4-0.4-3.2-1.3c-0.8-0.9-1.2-2.1-1.2-3.6c0-1.5,0.3-2.6,1-3.4
			c0.7-0.8,1.6-1.3,2.8-1.3c0.7,0,1.3,0.2,1.8,0.6c0.7,0.5,1,1.3,1,2.3V169.8z"/>
		<path class="st3" d="M233.2,169.1c0,0.2-0.1,0.4-0.2,0.6c-0.2,0.2-0.4,0.3-0.7,0.3h-1.9l-5.8-17.1h-4l5.7,17.1H218v1.4l1.7,2.2
			h13.9c1.1,0,2-0.4,2.8-1.3c0.6-0.7,1-1.5,1-2.5v-21h-4.2V169.1z"/>
		<path class="st3" d="M225.9,149.7v-0.9h-2.3c-0.5,0-1-0.2-1.3-0.6c-0.2-0.3-0.3-0.7-0.3-1.1c0-1.1,0.5-1.7,1.5-1.7
			c0.4,0,0.8,0.1,1.3,0.2v-1.8c-0.6-0.2-1.2-0.3-1.8-0.3c-1,0-1.8,0.3-2.4,0.9c-0.6,0.6-0.9,1.4-0.9,2.4c0,0.7,0.2,1.4,0.6,2H219
			v1.9h6.1L225.9,149.7z"/>
		<polygon class="st3" points="242.2,174.4 244.3,174.4 246.5,172.6 246.5,148.6 242.2,148.6 		"/>
		<path class="st3" d="M272.2,156.6h-2.1l-1.5,1.2c-1.1-0.5-2.2-0.8-3.4-0.8c-2.2,0-4.1,0.8-5.6,2.3c-1.7,1.7-2.5,3.8-2.5,6.5
			c0,2.4,0.7,4.3,2,5.7c1.4,1.6,3.3,2.4,5.8,2.4c2.2,0,4-0.5,5.2-1.6c1.4-1.2,2-2.8,2-4.8V156.6z M268,167.4c0,0.8-0.2,1.5-0.7,2
			c-0.5,0.6-1.3,0.8-2.3,0.8c-1.1,0-2-0.4-2.7-1.2c-0.6-0.8-1-1.9-1-3.4c0-1.5,0.4-2.8,1.2-3.7c0.8-0.9,1.8-1.4,3.1-1.4
			c0.7,0,1.5,0.2,2.3,0.5V167.4z"/>
		<path class="st3" d="M264.7,154.3c0.6,0,1.2-0.2,1.6-0.6c0.4-0.4,0.6-1,0.6-1.6s-0.2-1.2-0.6-1.6c-0.4-0.4-1-0.7-1.6-0.7
			c-0.6,0-1.2,0.2-1.6,0.7c-0.4,0.4-0.7,1-0.7,1.6c0,0.6,0.2,1.1,0.7,1.6C263.5,154.1,264.1,154.3,264.7,154.3z"/>
		<path class="st3" d="M270,154.3c0.6,0,1.2-0.2,1.6-0.7c0.4-0.4,0.7-1,0.7-1.6c0-0.6-0.2-1.2-0.7-1.6c-0.4-0.4-1-0.7-1.6-0.7
			s-1.2,0.2-1.6,0.7c-0.4,0.4-0.7,1-0.7,1.6c0,0.6,0.2,1.1,0.7,1.6C268.8,154.1,269.3,154.3,270,154.3z"/>
		<path class="st3" d="M302.4,156.2c-2.5,0-5.1,0.6-7.7,1.7v2.4c-1,0.4-1.8,1.1-2.4,1.9c-0.7,1.1-1,2.3-1,3.7c0,0.8,0.1,1.6,0.3,2.3
			c0.2,0.6,0.5,1.2,0.9,1.8h-6h-0.3h-1.5v-12.4h-4.2v14.8c0,4-2,6-6.1,6c-0.7,0-1.4-0.1-2.2-0.2v1.5l1.7,2.1c0.5,0,0.9,0,1.4,0
			c2.4,0,4.5-0.6,6.1-1.8c2-1.5,3.1-3.6,3.3-6.4h1.5h0.3h8.1c1.2,0,2.1-0.1,2.6-0.4h0.1c0.5,0.3,1.4,0.4,2.6,0.4h8.4
			c1,0,1.9-0.4,2.6-1.1c0.8-0.8,1.2-1.7,1.2-2.7v-3.5c0-2.9-0.7-5.2-2.2-7C308.1,157.2,305.6,156.2,302.4,156.2z M299,168.4
			c-0.4,0.6-1,1-1.8,1.1c-0.8-0.1-1.5-0.5-1.9-1.2c-0.4-0.6-0.6-1.4-0.6-2.3c0-0.8,0.2-1.5,0.5-2.1c0.5-0.8,1.2-1.3,2.1-1.3
			c0.7,0,1.3,0.3,1.8,0.8c0.5,0.6,0.8,1.4,0.8,2.5C299.6,167,299.4,167.8,299,168.4z M307.8,169.1c0,0.3-0.1,0.5-0.3,0.7
			c-0.2,0.1-0.4,0.2-0.6,0.2H302c0.4-0.5,0.7-1.2,0.9-1.9c0.2-0.7,0.3-1.4,0.3-2.2c0-1.7-0.5-3.1-1.5-4.2c-0.9-1-2.1-1.7-3.6-1.9
			c1.1-0.2,2.1-0.3,3.1-0.3c2.2,0,3.8,0.5,4.9,1.6c1.1,1.2,1.7,3,1.7,5.6V169.1z"/>
		<path class="st3" d="M341.3,176c-0.6,0-1.1,0.2-1.6,0.7c-0.4,0.4-0.7,1-0.7,1.6c0,0.6,0.2,1.2,0.7,1.6c0.4,0.4,1,0.7,1.6,0.7
			c0.6,0,1.2-0.2,1.6-0.7c0.4-0.4,0.7-1,0.7-1.6c0-0.6-0.2-1.2-0.7-1.6C342.4,176.2,341.9,176,341.3,176z"/>
		<path class="st3" d="M358.7,169.1c0,0.2-0.1,0.4-0.2,0.6c-0.2,0.2-0.4,0.3-0.7,0.3h-5.1h-0.2h-0.9v-0.5v-3.7c0-2.4-0.8-4.4-2.3-6
			c-1.7-1.8-4-2.6-6.8-2.6c-1.8,0-3.8,0.3-6,1v3.4c2.3-0.5,4-0.8,5.1-0.8c1.7,0,3.1,0.5,4.2,1.4c1.1,1,1.6,2.2,1.6,3.8v3.1
			c0,0.6-0.3,0.9-0.9,0.9h-14.3h-0.3h-0.8v-6.4c0-2.2-0.8-3.9-2.5-5.1c-1.3-0.9-2.8-1.3-4.5-1.3c-2.4,0-4.3,0.7-5.9,2.2
			c-1.5,1.5-2.2,3.5-2.2,6.1c0,2.2,0.6,4,1.8,5.5c1.5,1.7,3.5,2.6,6,2.6h2.9c-0.3,3.2-2.4,4.8-6.2,4.8c-0.8,0-1.7-0.1-2.7-0.2v1.5
			l1.8,2.2h0.1c0.6,0,1.1,0.1,1.5,0.1c1,0,2.1-0.1,3.2-0.4c1.6-0.4,2.9-1.1,4-2c1.6-1.4,2.5-3.4,2.6-5.9h0.9h0.3h15.7
			c1.2,0,2.2-0.5,3-1.4h0.1l1.1,1.4h0.5h0.2h6.5c1.2,0,2.1-0.4,2.8-1.3c0.6-0.7,0.9-1.5,0.9-2.5v-21h-4.2V169.1z M326.7,169.9h-2.4
			c-1.3,0-2.4-0.4-3.1-1.3c-0.8-0.8-1.1-2-1.1-3.4c0-1.5,0.3-2.6,1-3.4c0.7-0.8,1.6-1.3,2.8-1.3c0.7,0,1.3,0.2,1.9,0.7
			c0.6,0.5,0.9,1.3,0.9,2.2V169.9z"/>
		<polygon class="st3" points="367.7,148.6 367.7,174.4 369.7,174.4 371.9,172.6 371.9,148.6 		"/>
	</g>
	<g>
		<path class="st3" d="M5.9,196.5l-5.5,15.4h2.1l1.6-4.6h6l1.6,4.6h2.2l-5.4-15.4H5.9z M4.6,205.6l2.5-7l2.4,7H4.6z"/>
		<rect x="19.1" y="196.5" class="st3" width="1.8" height="15.4"/>
		<path class="st3" d="M27.4,213.5c0,0.6-0.1,0.9-0.3,1.1c-0.2,0.2-0.6,0.3-1.1,0.3h-0.1c-0.1,0-0.2,0-0.3,0v1.5
			c0.2,0,0.3,0.1,0.6,0.1c2,0,3.1-0.8,3.1-2.3v-13.4h-1.8V213.5z"/>
		<path class="st3" d="M28.2,196.6c-0.3,0-0.5,0.1-0.7,0.3c-0.2,0.2-0.3,0.5-0.3,0.7c0,0.3,0.1,0.5,0.3,0.7c0.2,0.2,0.5,0.3,0.7,0.3
			c0.3,0,0.6-0.1,0.8-0.3c0.2-0.2,0.3-0.5,0.3-0.7c0-0.3-0.1-0.5-0.3-0.7C28.8,196.7,28.5,196.6,28.2,196.6z"/>
		<path class="st3" d="M44.9,210.6c-0.5,0-0.7-0.3-0.7-0.8v-6.2c0-2-1.4-3-4.2-3c-1.7,0-2.9,0.4-3.7,1.3c-0.4,0.5-0.7,1.3-0.7,2.2
			h1.8c0.1-1.3,1-1.9,2.6-1.9c1.7,0,2.5,0.6,2.5,1.7l0,0.9l-3.6,0.8c-1.3,0.3-2.2,0.6-2.6,0.9c-0.7,0.6-1.1,1.4-1.1,2.4
			c0,0.9,0.3,1.6,0.9,2.2c0.7,0.7,1.6,1,2.8,1c1.7,0,3-0.5,3.8-1.6c0.1,1,0.7,1.6,1.9,1.6c0.3,0,0.7-0.1,1.1-0.3v-1.4
			c0,0-0.1,0-0.2,0.1C45.1,210.6,44.9,210.6,44.9,210.6z M42.4,208.2c0,0.5-0.2,1-0.7,1.4c-0.7,0.7-1.6,1-2.6,1
			c-1.5,0-2.2-0.6-2.2-1.7c0-0.5,0.2-0.9,0.6-1.1c0.4-0.3,1.1-0.5,2.1-0.8l2.8-0.7V208.2z"/>
		<polygon class="st3" points="60.3,209.4 58.1,200.8 56,200.8 53.8,209.4 51.6,200.8 49.6,200.8 52.8,211.9 54.8,211.9 56.9,203.2 
			59.2,211.9 61.2,211.9 64.5,200.8 62.5,200.8 		"/>
		<path class="st3" d="M75.1,200.6c-0.8,0-1.5,0.1-2,0.4c-0.5,0.3-1.1,0.7-1.6,1.4v-5.9h-1.7v15.4h1.7v-6.1c0-1.1,0.3-2,0.8-2.7
			c0.6-0.7,1.3-1,2.2-1c0.6,0,1.1,0.2,1.6,0.5c0.5,0.4,0.7,0.9,0.7,1.7v7.6h1.7v-8.3c0-0.9-0.3-1.7-0.9-2.2S76.2,200.6,75.1,200.6z"
			/>
		<path class="st3" d="M94.3,210.6c-0.5,0-0.7-0.3-0.7-0.8v-6.2c0-2-1.4-3-4.2-3c-1.7,0-2.9,0.4-3.7,1.3c-0.4,0.5-0.7,1.3-0.7,2.2
			h1.8c0.1-1.3,1-1.9,2.6-1.9c1.7,0,2.5,0.6,2.5,1.7l0,0.9l-3.6,0.8c-1.3,0.3-2.2,0.6-2.6,0.9c-0.7,0.6-1.1,1.4-1.1,2.4
			c0,0.9,0.3,1.6,0.9,2.2c0.7,0.7,1.6,1,2.8,1c1.7,0,3-0.5,3.8-1.6c0.1,1,0.7,1.6,1.9,1.6c0.3,0,0.7-0.1,1.1-0.3v-1.4
			c0,0-0.1,0-0.2,0.1C94.5,210.6,94.4,210.6,94.3,210.6z M91.8,208.2c0,0.5-0.2,1-0.7,1.4c-0.7,0.7-1.6,1-2.6,1
			c-1.5,0-2.2-0.6-2.2-1.7c0-0.5,0.2-0.9,0.6-1.1c0.4-0.3,1.1-0.5,2.1-0.8l2.8-0.7V208.2z"/>
		<path class="st3" d="M102,202.8v-2h-1.6v11.1h1.8v-5.8c0-1.6,0.4-2.6,1.2-3.2c0.4-0.3,1.2-0.5,2.4-0.5v-1.8
			c-0.2,0-0.5-0.1-0.6-0.1C103.7,200.6,102.7,201.3,102,202.8z"/>
		<path class="st3" d="M120.2,210.6c-0.5,0-0.7-0.3-0.7-0.8v-6.2c0-2-1.4-3-4.2-3c-1.7,0-2.9,0.4-3.7,1.3c-0.4,0.5-0.7,1.3-0.7,2.2
			h1.8c0.1-1.3,1-1.9,2.6-1.9c1.7,0,2.5,0.6,2.5,1.7l0,0.9l-3.6,0.8c-1.3,0.3-2.2,0.6-2.6,0.9c-0.7,0.6-1.1,1.4-1.1,2.4
			c0,0.9,0.3,1.6,0.9,2.2c0.7,0.7,1.6,1,2.8,1c1.7,0,3-0.5,3.8-1.6c0.1,1,0.7,1.6,1.9,1.6c0.3,0,0.7-0.1,1.1-0.3v-1.4
			c0,0-0.1,0-0.2,0.1C120.4,210.6,120.3,210.6,120.2,210.6z M117.7,208.2c0,0.5-0.2,1-0.7,1.4c-0.7,0.7-1.6,1-2.6,1
			c-1.5,0-2.2-0.6-2.2-1.7c0-0.5,0.2-0.9,0.6-1.1c0.4-0.3,1.1-0.5,2.1-0.8l2.8-0.7V208.2z"/>
		<path class="st3" d="M138.2,196.5l-5.5,15.4h2.1l1.6-4.6h6l1.6,4.6h2.2l-5.4-15.4H138.2z M136.9,205.6l2.5-7l2.4,7H136.9z"/>
		<rect x="151.4" y="196.5" class="st3" width="1.8" height="15.4"/>
		<path class="st3" d="M164,200.6c-1.5,0-2.7,0.4-3.5,1.3c-1,1-1.5,2.6-1.5,4.5c0,1.7,0.4,3,1.2,4c0.9,1.1,2.2,1.7,3.9,1.7
			c1.5,0,2.6-0.4,3.5-1.3c1-1,1.5-2.5,1.5-4.4c0-1.7-0.4-3.1-1.2-4.1C167,201.2,165.7,200.6,164,200.6z M166.3,209.4
			c-0.6,0.7-1.3,1.1-2.3,1.1c-0.9,0-1.7-0.3-2.2-0.9c-0.6-0.7-1-1.8-1-3.1c0-1.3,0.3-2.3,0.9-3.1c0.6-0.8,1.4-1.1,2.4-1.1
			c0.9,0,1.6,0.3,2.2,1c0.6,0.7,0.9,1.8,0.9,3.2C167.2,207.7,166.9,208.7,166.3,209.4z"/>
		<polygon class="st3" points="184.3,209.4 182.2,200.8 180,200.8 177.9,209.4 175.6,200.8 173.7,200.8 176.9,211.9 178.9,211.9 
			181,203.2 183.3,211.9 185.3,211.9 188.5,200.8 186.5,200.8 		"/>
		<rect x="193.8" y="196.5" class="st3" width="1.8" height="15.4"/>
		<path class="st3" d="M211.3,210.6c-0.5,0-0.7-0.3-0.7-0.8v-6.2c0-2-1.4-3-4.2-3c-1.7,0-2.9,0.4-3.7,1.3c-0.4,0.5-0.7,1.3-0.7,2.2
			h1.8c0.1-1.3,1-1.9,2.6-1.9c1.7,0,2.5,0.6,2.5,1.7l0,0.9l-3.6,0.8c-1.3,0.3-2.2,0.6-2.6,0.9c-0.7,0.6-1.1,1.4-1.1,2.4
			c0,0.9,0.3,1.6,0.9,2.2c0.7,0.7,1.6,1,2.8,1c1.7,0,3-0.5,3.8-1.6c0.1,1,0.7,1.6,1.9,1.6c0.3,0,0.7-0.1,1.1-0.3v-1.4
			c0,0-0.1,0-0.2,0.1C211.5,210.6,211.4,210.6,211.3,210.6z M208.8,208.2c0,0.5-0.2,1-0.7,1.4c-0.7,0.7-1.6,1-2.6,1
			c-1.5,0-2.2-0.6-2.2-1.7c0-0.5,0.2-0.9,0.6-1.1s1.1-0.5,2.1-0.8l2.8-0.7V208.2z"/>
		<path class="st3" d="M237.1,210.5c-0.1-0.4-0.2-1.1-0.2-2.2c0-1.5-0.2-2.4-0.6-2.9c-0.3-0.5-0.8-0.8-1.6-1.1
			c0.9-0.4,1.5-0.9,1.9-1.5c0.4-0.6,0.6-1.3,0.6-2.2c0-1.3-0.4-2.2-1.1-2.9c-0.8-0.8-2-1.2-3.7-1.2h-7.1v15.4h2v-6.6h5.1
			c0.9,0,1.6,0.2,2,0.7c0.1,0.1,0.2,0.4,0.4,0.7c0.1,0.3,0.2,0.6,0.2,0.7l0,2.4c0,0.7,0.2,1.4,0.5,2.1h2.4v-0.5
			C237.4,211.1,237.2,210.8,237.1,210.5z M232.1,203.5h-4.8v-5.3h4.8c2,0,3,0.9,3,2.7S234.1,203.5,232.1,203.5z"/>
		<path class="st3" d="M250.9,201.3c-0.8-0.5-1.7-0.8-2.8-0.8c-1.4,0-2.6,0.5-3.5,1.4c-1,1.1-1.6,2.6-1.6,4.5c0,1.7,0.4,3,1.2,4
			c0.9,1.2,2.2,1.7,3.9,1.7c1.3,0,2.3-0.3,3.1-1c0.8-0.6,1.4-1.6,1.6-2.7h-1.8c-0.5,1.4-1.5,2-2.9,2c-1.2,0-2.1-0.5-2.7-1.4
			c-0.4-0.6-0.6-1.3-0.6-2.3h8.2v-0.1c0-1.5-0.2-2.7-0.5-3.4C252.3,202.5,251.7,201.8,250.9,201.3z M245,205.4c0.1-1,0.4-1.8,1-2.4
			c0.6-0.6,1.3-0.9,2.2-0.9c0.9,0,1.6,0.3,2.2,0.9c0.6,0.6,0.9,1.4,0.9,2.3H245z"/>
		<path class="st3" d="M263.2,210.5c-0.9,0-1.7-0.3-2.2-0.9c-0.6-0.7-1-1.7-1-3.1c0-1.4,0.3-2.4,0.8-3.2c0.5-0.8,1.3-1.1,2.3-1.1
			c1.5,0,2.4,0.8,2.6,2.3h1.8c-0.1-1-0.3-1.8-0.8-2.3c-0.8-1.1-2-1.6-3.6-1.6c-1.4,0-2.5,0.5-3.4,1.4c-1,1.1-1.5,2.6-1.5,4.5
			c0,1.6,0.4,2.9,1.2,3.9c0.9,1.2,2.2,1.7,3.8,1.7c1.2,0,2.2-0.3,3-0.9c0.9-0.7,1.4-1.7,1.5-3.1h-1.8
			C265.6,209.7,264.7,210.5,263.2,210.5z"/>
		<path class="st3" d="M274.8,202.8v-2h-1.6v11.1h1.8v-5.8c0-1.6,0.4-2.6,1.2-3.2c0.4-0.3,1.2-0.5,2.4-0.5v-1.8
			c-0.2,0-0.5-0.1-0.6-0.1C276.5,200.6,275.4,201.3,274.8,202.8z"/>
		<path class="st3" d="M290.7,206.9c0,1.1-0.3,2-0.8,2.7c-0.5,0.7-1.3,1-2.2,1c-0.7,0-1.3-0.2-1.7-0.6c-0.4-0.4-0.6-0.9-0.6-1.6
			v-7.6h-1.7v8.3c0,0.9,0.3,1.6,1,2.2s1.5,0.8,2.6,0.8c1.6,0,2.7-0.7,3.5-2v1.7h1.7v-11.1h-1.7V206.9z"/>
		<rect x="299" y="196.5" class="st3" width="1.8" height="15.4"/>
		<path class="st3" d="M310.3,210.5c-0.3,0-0.5-0.1-0.7-0.3s-0.3-0.4-0.3-0.7v-7.4h2.3v-1.4h-2.3v-3.1l-1.7,0.8v2.3h-1.5v1.4h1.5
			v8.2c0,1.2,0.7,1.7,2.1,1.7c0.5,0,1.1-0.1,2-0.2l-0.2-1.6C311,210.5,310.6,210.5,310.3,210.5z"/>
		<path class="st3" d="M328.6,200.6c-0.7,0-1.3,0.1-1.8,0.4s-1,0.7-1.5,1.3c-0.6-1.1-1.6-1.6-3-1.6c-1.4,0-2.5,0.6-3.4,1.8v-1.6
			h-1.6v11.1h1.8V205c0-0.8,0.3-1.5,0.8-2c0.5-0.6,1.1-0.8,1.9-0.8c1.4,0,2,0.7,2,2.2v7.6h1.8V205c0-0.8,0.3-1.4,0.8-2
			c0.5-0.6,1.1-0.8,1.8-0.8c1.4,0,2.1,0.7,2.1,2.2v7.6h1.8v-8.3C331.9,201.6,330.8,200.6,328.6,200.6z"/>
		<path class="st3" d="M345.6,201.3c-0.8-0.5-1.7-0.8-2.8-0.8c-1.4,0-2.6,0.5-3.5,1.4c-1,1.1-1.6,2.6-1.6,4.5c0,1.7,0.4,3,1.2,4
			c0.9,1.2,2.2,1.7,3.9,1.7c1.3,0,2.3-0.3,3.1-1c0.8-0.6,1.4-1.6,1.6-2.7h-1.8c-0.5,1.4-1.5,2-2.9,2c-1.2,0-2.1-0.5-2.7-1.4
			c-0.4-0.6-0.6-1.3-0.6-2.3h8.2v-0.1c0-1.5-0.2-2.7-0.5-3.4C347,202.5,346.4,201.8,345.6,201.3z M339.6,205.4c0.1-1,0.4-1.8,1-2.4
			c0.6-0.6,1.3-0.9,2.2-0.9c0.9,0,1.6,0.3,2.2,0.9c0.6,0.6,0.9,1.4,0.9,2.3H339.6z"/>
		<path class="st3" d="M359,200.6c-1.6,0-2.8,0.7-3.7,2.1v-1.9h-1.6v11.1h1.8v-6.1c0-1.1,0.3-2,0.8-2.7c0.5-0.7,1.3-1,2.2-1
			c0.7,0,1.3,0.2,1.7,0.6c0.4,0.4,0.6,0.9,0.6,1.6v7.6h1.7v-8.3c0-0.9-0.3-1.6-0.9-2.2C360.9,200.8,360.1,200.6,359,200.6z"/>
		<path class="st3" d="M373.3,210.3c-0.6,0.1-1,0.2-1.3,0.2c-0.3,0-0.5-0.1-0.7-0.3s-0.3-0.4-0.3-0.7v-7.4h2.3v-1.4h-2.3v-3.1
			l-1.7,0.8v2.3h-1.5v1.4h1.5v8.2c0,1.2,0.7,1.7,2.1,1.7c0.5,0,1.1-0.1,2-0.2L373.3,210.3z"/>
	</g>
</g>
</svg>
